<?xml version="1.0" encoding="utf-8"?>
<svg width="1000px" height="1000px" viewBox="0 0 1000 1000" version="1.1" xmlns:xlink="http://www.w3.org/1999/xlink" xmlns="http://www.w3.org/2000/svg">
  <g id="Grup">
    <path d="M0 0L1000 0L1000 1000L0 1000L0 0Z" id="Dikdörtgen" fill="#FFFFFF" fill-opacity="0" fill-rule="evenodd" stroke="none" />
    <path d="M215.816 784.85C264.631 833.667 343.198 833.667 500.333 833.667C657.467 833.667 736.037 833.667 784.85 784.85C833.667 736.037 833.667 657.467 833.667 500.333C833.667 343.198 833.667 264.631 784.85 215.816C736.037 167 657.467 167 500.333 167C343.198 167 264.631 167 215.816 215.816C167 264.631 167 343.198 167 500.333C167 657.467 167 736.037 215.816 784.85L215.816 784.85Z" id="Şekil" fill="#673AB7" stroke="none" />
    <path d="M366.667 291.667C380.474 291.667 391.667 302.86 391.667 316.667L391.667 358.334L433.333 358.334C447.14 358.334 458.333 369.527 458.333 383.334C458.333 397.141 447.14 408.334 433.333 408.334L391.667 408.334L391.667 450C391.667 463.807 380.474 475 366.667 475C352.86 475 341.667 463.807 341.667 450L341.667 408.334L300 408.334C286.193 408.334 275 397.141 275 383.334C275 369.527 286.193 358.334 300 358.334L341.667 358.334L341.667 316.667C341.667 302.86 352.86 291.667 366.667 291.667L366.667 291.667ZM541.667 383.333C541.667 369.526 552.86 358.333 566.667 358.333L700 358.333C713.807 358.333 725 369.526 725 383.333C725 397.14 713.807 408.333 700 408.333L566.667 408.333C552.86 408.333 541.667 397.14 541.667 383.333L541.667 383.333ZM541.667 583.333C541.667 569.527 552.86 558.333 566.667 558.333L700 558.333C713.807 558.333 725 569.527 725 583.333C725 597.14 713.807 608.333 700 608.333L566.667 608.333C552.86 608.333 541.667 597.14 541.667 583.333L541.667 583.333ZM298.989 565.657C308.752 555.893 324.581 555.893 334.344 565.657L366.667 597.98L398.989 565.657C408.752 555.893 424.581 555.893 434.343 565.657C444.107 575.42 444.107 591.25 434.343 601.013L402.022 633.333L434.343 665.657C444.107 675.42 444.107 691.247 434.343 701.01C424.581 710.773 408.752 710.773 398.989 701.01L366.667 668.69L334.345 701.013C324.582 710.773 308.753 710.773 298.989 701.013C289.226 691.25 289.226 675.42 298.989 665.657L331.312 633.333L298.989 601.013C289.226 591.25 289.226 575.42 298.989 565.657L298.989 565.657ZM541.667 683.333C541.667 669.527 552.86 658.333 566.667 658.333L700 658.333C713.807 658.333 725 669.527 725 683.333C725 697.14 713.807 708.333 700 708.333L566.667 708.333C552.86 708.333 541.667 697.14 541.667 683.333L541.667 683.333Z" id="Şekil" fill="#202020" fill-rule="evenodd" stroke="none" />
  </g>
</svg>